<?xml version="1.0" encoding="utf-8"?>
<!-- Generator: Adobe Illustrator 28.3.0, SVG Export Plug-In . SVG Version: 6.00 Build 0)  -->
<svg version="1.1" xmlns="http://www.w3.org/2000/svg" xmlns:xlink="http://www.w3.org/1999/xlink" x="0px" y="0px"
	 viewBox="0 0 998.33 1075.68" style="enable-background:new 0 0 998.33 1075.68;" xml:space="preserve">
<g id="Layer_1">
	<g>
		<path d="M794.12,803.64c0-2.51,0-4.28,0-6.05c0-60.1,0.01-120.2-0.02-180.3c0-11.89-0.06-11.91-11.84-11.91
			c-40.79-0.01-81.58-0.01-122.36,0c-2.16,0-4.33,0.04-6.49,0.14c-3.16,0.15-4.91,1.69-4.91,5.02c0,3.33-0.14,6.66-0.14,9.99
			c-0.01,68.76-0.01,137.51-0.01,206.27c0,1.79,0,3.58,0,5.36c-0.44,0.39-0.87,0.78-1.31,1.16c-4.79-3.68-10.06-6.89-14.3-11.12
			c-47.62-47.49-95.12-95.11-142.58-142.77c-21.96-22.05-43.85-44.19-65.58-66.47c-5.14-5.27-10.86-7.6-18.18-7.59
			c-60.43,0.1-120.87,0.03-181.3,0.01c-2,0-4.24-0.42-5.92,0.33c-1.78,0.8-3.95,2.59-4.32,4.29c-0.77,3.52-0.56,7.27-0.56,10.93
			c-0.02,61.93-0.02,123.86-0.02,185.79c0,2.11,0,4.22,0,6.41c-10.93-2.43-15.69-11.32-21.42-18.64
			c-46.07-58.8-76.64-124.67-86.13-199.04c-16.66-130.52,21.12-243.7,113.5-337.35c63.88-64.75,142.2-102.83,232.66-112.63
			c127.63-13.82,238.08,25.02,329,115.72c61.25,61.09,97.8,135.53,110.21,221.28c12.03,83.1-1.09,162.34-38.67,237.49
			C839.92,747,824.33,772.7,804.98,796c-1.34,1.61-3.06,2.94-4.77,4.17C798.62,801.3,796.8,802.13,794.12,803.64z M344.43,546.19
			c10.66-2.9,20.29-5.4,29.8-8.26c1.09-0.33,2.18-2.7,2.21-4.14c0.15-9.98,0.08-19.97-0.03-29.95c-0.31-29.11-0.64-58.22-1.05-87.33
			c-0.08-5.43-1.45-6.49-6.78-5.3c-5.68,1.27-11.28,2.89-16.9,4.4c-7.72,2.08-7.99,2.21-7.95,10.12c0.16,28.45,0.49,56.9,0.7,85.35
			C344.5,522.37,344.43,533.67,344.43,546.19z M605.67,476.01c10.29-2.76,19.22-5.27,28.23-7.5c3.35-0.83,4.34-2.37,4.28-5.87
			c-0.42-24.76-0.59-49.53-0.82-74.3c-0.13-13.8-0.12-27.6-0.39-41.39c-0.11-5.75-1.9-7.07-7.55-5.88
			c-4.71,0.99-9.33,2.41-13.99,3.64c-10.13,2.67-10.27,2.79-10.22,13.07c0.13,25.77,0.33,51.54,0.45,77.3
			C605.73,448.37,605.67,461.64,605.67,476.01z M507.15,502.45c0-11.57,0.08-22.37-0.02-33.17c-0.27-29.27-0.59-58.53-0.98-87.8
			c-0.07-5.31-1.62-6.52-6.82-5.4c-5.04,1.08-10,2.52-14.97,3.87c-9.83,2.66-9.98,2.69-9.91,12.79
			c0.24,34.26,0.61,68.51,0.91,102.77c0.04,4.92,0.01,9.83,0.01,15.49C486.47,508.01,496.7,505.26,507.15,502.45z M213.72,581.2
			c9.86-2.64,18.77-5.15,27.76-7.36c3.36-0.83,4.42-2.43,4.37-5.89c-0.25-16.47-0.15-32.94-0.31-49.41
			c-0.22-22.12-0.5-44.24-0.88-66.36c-0.1-5.94-1.65-7.04-7.49-5.7c-5.35,1.23-10.66,2.62-15.94,4.12
			c-8.12,2.31-8.34,2.48-8.28,11.01c0.2,28.77,0.53,57.55,0.76,86.32C213.79,558.71,213.72,569.47,213.72,581.2z M279.01,563.76
			c10.68-2.92,20.3-5.41,29.79-8.31c1.19-0.36,2.45-2.91,2.44-4.44c-0.21-38.78-0.57-77.57-0.97-116.35
			c-0.06-5.5-1.61-6.88-7.11-5.78c-5.87,1.18-11.63,2.86-17.41,4.46c-6.67,1.84-7.33,2.78-7.29,9.79
			c0.17,31.63,0.37,63.26,0.54,94.88C279.04,546.31,279.01,554.6,279.01,563.76z M736.55,440.86c10.05-2.68,18.98-5.23,28.01-7.41
			c3.69-0.89,4.47-2.82,4.4-6.33c-0.36-18.13-0.51-36.26-0.67-54.4c-0.18-19.97-0.24-39.93-0.45-59.9
			c-0.07-6.59-1.92-8.06-8.31-6.63c-5.19,1.16-10.31,2.64-15.44,4.09c-7.66,2.17-8.31,3.08-8.25,11.19
			c0.23,32.28,0.49,64.55,0.71,96.83C736.59,425.59,736.55,432.87,736.55,440.86z M671.3,458.37c9.81-2.65,18.72-5.22,27.72-7.38
			c3.46-0.83,4.42-2.44,4.36-5.86c-0.24-14.64-0.16-29.29-0.29-43.94c-0.22-23.46-0.48-46.93-0.82-70.39
			c-0.1-7.12-1.42-8.24-8.42-6.86c-5.05,0.99-10,2.53-14.98,3.86c-7.95,2.12-8.44,2.59-8.38,10.95c0.21,30.45,0.56,60.91,0.81,91.36
			C671.36,439.21,671.3,448.31,671.3,458.37z M540.35,493.5c10.14-2.69,18.88-5.18,27.72-7.27c3.85-0.91,4.79-2.85,4.73-6.63
			c-0.35-21.46-0.39-42.92-0.61-64.38c-0.17-16.8-0.38-33.6-0.73-50.39c-0.12-5.94-1.5-7.06-7.4-5.93c-5.22,1-10.36,2.46-15.48,3.91
			c-8.64,2.46-8.86,2.65-8.82,11.65c0.12,23.45,0.42,46.91,0.55,70.36C540.42,460.59,540.35,476.37,540.35,493.5z M409.59,528.65
			c10.2-2.75,19.1-5.34,28.12-7.48c3.77-0.89,4.49-2.83,4.43-6.31c-0.35-20.95-0.52-41.9-0.71-62.85
			c-0.16-17.13-0.19-34.26-0.44-51.39c-0.1-6.73-1.74-8.05-8.29-6.65c-5.68,1.21-11.24,3.03-16.89,4.4
			c-4.77,1.16-6.71,3.82-6.65,8.89c0.31,24.94,0.35,49.89,0.43,74.84C409.63,497.22,409.59,512.33,409.59,528.65z"/>
		<path d="M516.28,965.88c-6.39-6.97-12.01-14.91-19.41-20.48c-4.4-3.32-11.56-3.76-17.55-4.05c-37.52-1.79-73.95-8.95-109.33-21.47
			c-2.19-0.77-3.68-3.41-5.61-5.05c-6.77-5.76-4.45-13.56-4.45-20.67c-0.01-45.28,0.17-90.57,0.29-135.85c0-1.64,0-3.27,0-4.32
			C440.88,834.66,521.62,915.41,602.2,996c-2.39,0.46-5.73,1.11-9.42,1.82c0.73,5.33-2.51,5.97-6.79,6.44
			c-27.78,3.04-55.48,6.92-83.32,9.29c-13.68,1.16-27.62,0.25-41.37-0.77c-30.95-2.3-61.39-7.78-91.25-16.33
			c-39.74-11.38-77.26-27.77-112.74-49.06c-38.99-23.4-73.82-51.94-104.16-85.62c-59.9-66.48-99.21-143.75-116.37-231.63
			c-20.44-104.69-7.48-205.52,39.94-301.18c45.71-92.2,114.81-162.14,206.14-209.59c77.77-40.4,160.79-57.34,248.11-51.04
			c114.45,8.25,213.33,52.53,295.69,132.43c70.61,68.5,115.56,151.51,133.85,248.16c20.51,108.35,4.92,211.79-45.77,309.92
			c-17.36,33.6-37.73,65.16-62.81,93.38c-14.78,16.63-31.27,31.75-47.1,47.43c-1.15,1.14-3.14,1.56-4.82,1.99
			c-1.67,0.43-3.46,0.44-5.88,0.72c0-2-0.01-4.08,0-6.15c0.06-14.15,0.26-28.31,0.12-42.46c-0.04-3.83,1.24-6.46,3.93-9.08
			c45.07-44.04,78.95-95.47,101.32-154.4c22.57-59.45,31.13-120.98,26.12-184.31c-4.2-53.11-17.78-103.81-41.5-151.58
			c-16.9-34.02-38.56-64.85-63.9-93.18c-30.57-34.17-65.74-62.69-105.32-85.65c-46.11-26.74-95.61-44.26-148.33-52.66
			c-29.22-4.65-58.62-6.19-88.09-4.74c-53.75,2.64-105.32,14.9-154.46,37.04c-42.38,19.09-80.8,44.16-115.03,75.66
			C149.5,285.59,107.69,351.13,86.61,429.51c-39.05,145.15,1.54,300.69,106.71,407.9c63.29,64.52,139.39,105.34,228.15,122.34
			c28.19,5.4,56.71,7.65,85.43,7.01C510.21,966.69,513.5,966.15,516.28,965.88z"/>
	</g>
</g>
<g id="Layer_2">
</g>
</svg>
